# xmcd CD database file
# Copyright (C) 1993-1998 Ti Kan
#
# Track frame offsets:
#  150
#  22657
#  46172
#  67440
#  90542
#  110927
#  132785
#  150875
#  172217
#  189550
#  208655
#  229715
#  250357
#  267995
#  285720
#  305722
#
# Disc length: 4349 seconds
#
# Revision: 1
# Processed by: cddbd v1.4b41PL1 Copyright (c) Steve Scherf et al.
# Submitted via: CDWizzard Release:4.35
#
DISCID=e810fb10
DTITLE=Commissioned - Complete
DYEAR=1900
DGENRE=
TTITLE0=Victory
TTITLE1=Love Isn't Love
TTITLE2=Go Tell Somebody
TTITLE3=Cry On
TTITLE4=Who Do Men Say I Am
TTITLE5=Hide The Word
TTITLE6=Learn To Pray
TTITLE7=Running Back To You
TTITLE8=I'm Goin On
TTITLE9='Tis So Sweet
TTITLE10=I Can See Jesus
TTITLE11=Unworthy
TTITLE12=You've Got A Friend
TTITLE13=The City
TTITLE14=Giving My Problems To You
TTITLE15=Surely We Need Him
EXTD=
EXTT0=
EXTT1=
EXTT2=
EXTT3=
EXTT4=
EXTT5=
EXTT6=
EXTT7=
EXTT8=
EXTT9=
EXTT10=
EXTT11=
EXTT12=
EXTT13=
EXTT14=
EXTT15=
PLAYORDER=
